<svg width="1117" height="360" viewBox="0 0 1117 360" fill="none" xmlns="http://www.w3.org/2000/svg">
<path d="M305.748 153.985C306.566 156.278 307.322 158.503 308.139 160.968C308.323 161.608 308.448 162.007 308.551 162.528C308.569 162.811 308.608 162.972 308.629 163.269C308.727 164.041 308.842 164.675 308.927 165.463C308.934 166.241 308.972 166.864 308.984 167.609C308.979 167.891 309.002 168.053 308.993 168.371C308.984 169.27 309.007 170.013 308.996 170.916C308.986 172.059 309.007 173.041 308.997 174.191C308.964 182.356 308.963 190.352 308.918 198.464C308.886 198.738 308.898 198.899 308.91 199.06C308.52 201.056 308.13 203.052 307.657 205.273C307.558 205.655 307.543 205.812 307.528 205.969C307.381 206.371 307.235 206.772 307.131 207.299C306.909 207.912 306.644 208.399 306.276 209.075C306.035 209.62 305.896 209.977 305.757 210.333C305.119 211.407 304.481 212.48 303.815 213.671C302.624 215.204 301.463 216.618 300.154 218.184C299.712 218.668 299.417 219 299.013 219.368C298.521 219.772 298.139 220.141 297.655 220.544C297.354 220.776 297.155 220.975 296.843 221.203C296.318 221.582 295.907 221.932 295.508 222.296C295.521 222.31 295.504 222.276 295.392 222.295C294.994 222.551 294.707 222.788 294.297 223.053C292.328 224.041 290.482 225.002 288.505 225.957C287.734 226.186 287.095 226.421 286.332 226.647C286.052 226.685 285.896 226.732 285.61 226.774C284.983 226.911 284.485 227.053 283.987 227.195L283.827 227.139C283.827 227.139 283.662 227.182 283.452 227.243C282.642 227.452 282.048 227.679 281.439 227.731C280.456 227.815 279.464 227.784 278.358 227.771C278.081 227.763 277.922 227.785 277.608 227.776C276.827 227.766 276.2 227.785 275.406 227.772C269.43 227.763 263.622 227.787 257.654 227.779C256.628 227.769 255.762 227.79 254.735 227.778C253.596 227.767 252.616 227.789 251.493 227.779C250.959 227.77 250.569 227.791 250.013 227.78C248.146 227.763 246.446 227.777 244.693 227.745C244.642 227.698 244.503 227.709 244.494 227.561C244.45 226.921 244.415 226.43 244.418 225.773C244.456 218.639 244.456 211.671 244.456 204.444C245.887 204.444 247.129 204.444 248.536 204.476C250.164 204.487 251.627 204.465 253.255 204.475C254.881 204.486 256.342 204.465 257.952 204.476C258.606 204.486 259.112 204.464 259.784 204.473C261.531 204.482 263.113 204.46 264.856 204.471C265.998 204.481 266.979 204.458 268.128 204.468C271.402 204.503 274.509 204.531 277.615 204.498C279.235 204.48 280.818 204.232 282.27 203.14C283.099 202.395 283.806 201.681 284.6 200.885C285.418 199.726 285.972 198.584 286.06 197.167C286.082 197.021 286.068 196.961 286.098 196.736C286.173 195.908 286.231 195.247 286.231 194.585C286.237 186.393 286.237 178.202 286.23 170.01C286.23 169.532 286.157 169.054 286.15 168.427C286.126 167.771 286.069 167.266 286.027 166.627C284.88 162.181 282.307 159.916 278.089 159.638C276.536 159.535 274.968 159.664 273.286 159.648C273 159.635 272.836 159.662 272.505 159.648C269.646 159.603 266.951 159.572 264.257 159.601C262.467 159.62 260.679 159.725 258.748 159.749C258.218 159.749 257.83 159.791 257.281 159.802C255.879 159.84 254.638 159.908 253.289 159.95C253.041 159.957 252.899 159.991 252.617 159.998C252.213 160.049 251.949 160.127 251.587 160.148C251.345 160.128 251.201 160.166 250.957 160.175C250.511 160.189 250.164 160.231 249.663 160.251C244.799 160.937 240.059 161.491 235.383 162.385C219.829 165.357 206.187 172.209 194.599 183.033C190.759 186.62 187.098 190.398 183.346 194.079C176.819 200.483 169.924 206.432 162.1 211.228C160.46 212.233 158.829 213.254 157.194 214.269C156.456 214.627 155.719 214.986 154.76 215.442C151.227 217.048 147.915 218.557 144.603 220.065C144.018 220.239 143.432 220.413 142.624 220.685C141.703 221.047 141.005 221.313 140.306 221.578C139.531 221.794 138.756 222.01 137.72 222.286C134.999 223.019 132.539 223.691 130.079 224.363C129.922 224.384 129.766 224.405 129.376 224.462C128.742 224.621 128.343 224.744 127.794 224.854C124.622 225.352 121.607 225.912 118.576 226.36C115.782 226.772 112.97 227.062 110.076 227.385C109.928 227.385 109.87 227.407 109.664 227.401C108.644 227.462 107.772 227.552 106.816 227.605C106.734 227.569 106.578 227.66 106.49 227.615C106.08 227.619 105.758 227.669 105.281 227.689C104.388 227.704 103.65 227.748 102.913 227.793C96.9794 227.78 91.0457 227.766 84.9445 227.783C82.078 227.612 79.3175 227.706 76.6907 227.158C64.7961 224.676 56.8801 217.54 52.6973 205.901C52.551 205.537 52.4915 205.392 52.4374 205.112C52.2138 204.221 51.9849 203.463 51.7733 202.581C51.751 202.298 51.7113 202.138 51.6867 201.831C51.4725 199.483 51.2431 197.282 51.047 194.913C51.0532 192.074 51.026 189.402 51.0322 186.581C51.0432 185.924 51.0207 185.416 51.0317 184.752C51.044 183.856 51.023 183.115 51.0019 182.374C51.0235 180.307 51.0451 178.239 51.0664 175.849C51.044 174.783 51.022 174.04 51 173.297C51.031 171.11 51.0619 168.922 51.1078 166.438C51.116 165.872 51.1094 165.602 51.1027 165.332C51.2045 164.693 51.3064 164.053 51.4405 163.15C51.5546 162.362 51.6365 161.839 51.7742 161.172C52.1716 158.451 53.2381 156.138 54.3484 153.817C57.5059 147.217 62.3934 142.381 68.9716 139.253C73.1366 137.273 77.5648 136.305 82.1636 136.29C94.6721 136.249 107.181 136.273 119.69 136.277C120.214 136.277 120.739 136.335 121.408 136.375C121.408 144.154 121.408 151.822 121.257 159.528C120.484 159.607 119.863 159.648 119.122 159.65C118.84 159.634 118.676 159.658 118.347 159.644C112.473 159.6 106.765 159.588 101.057 159.594C99.2568 159.596 97.4572 159.649 95.4979 159.64C94.3555 159.627 93.3727 159.652 92.224 159.64C89.0035 159.597 85.9484 159.562 82.8944 159.604C81.949 159.617 81.0066 159.84 79.9685 159.958C79.5906 160.078 79.3071 160.207 78.8884 160.366C75.1614 162.115 73.827 165.119 73.8374 168.933C73.8615 177.804 73.8492 186.675 73.8723 195.546C73.8741 196.255 74.0356 196.963 74.1248 197.811C74.686 200.172 75.7618 202.02 77.9391 203.231C79.2639 203.719 80.4916 204.32 81.7633 204.435C83.7188 204.612 85.7045 204.454 87.8448 204.471C91.287 204.48 94.5617 204.458 97.9897 204.465C98.7656 204.47 99.3882 204.445 100.168 204.449C101.067 204.433 101.809 204.386 102.663 204.372C103.079 204.356 103.383 204.309 103.815 204.296C104.204 204.279 104.464 204.228 104.889 204.204C109.446 203.959 113.833 203.637 118.287 202.696C119.422 202.484 120.415 202.251 121.504 202.031C121.658 202.016 121.716 201.987 121.873 201.979C122.168 201.949 122.362 201.899 122.557 201.85C137.671 198.73 151.189 192.326 162.638 181.902C168.038 176.986 173.127 171.728 178.339 166.606C187.483 157.62 197.879 150.52 209.734 145.586C217.846 142.209 226.281 139.993 234.915 138.476C236.4 138.216 237.891 137.986 239.523 137.696C240.257 137.579 240.846 137.509 241.644 137.415C242.23 137.337 242.607 137.283 242.985 137.23C243.477 137.177 243.97 137.124 244.604 137.024C247.392 136.826 250.038 136.58 252.687 136.543C261.493 136.421 270.303 136.189 279.105 136.363C285.254 136.485 290.911 138.561 295.904 142.261C296.285 142.544 296.672 142.821 297.222 143.256C299.188 145.26 300.989 147.107 302.79 148.955C302.835 149.066 302.879 149.177 303.038 149.444C303.853 150.681 304.553 151.761 305.253 152.842C305.253 152.842 305.237 152.932 305.287 153.067C305.433 153.322 305.53 153.441 305.626 153.561C305.647 153.679 305.668 153.798 305.748 153.985Z" fill="#008C77"/>
<path d="M221.141 60.0824C221.655 60.9956 222.17 61.9087 222.801 63.0113C223.149 63.6064 223.38 64.0121 223.611 64.4178C224.111 65.776 224.611 67.1343 225.173 68.6145C226.259 72.6199 226.554 76.5719 226.539 80.5813C226.488 93.8914 226.512 107.202 226.507 120.512C226.507 120.993 226.507 121.475 226.507 122.145C218.763 123.581 211.318 125.944 203.792 128.953C203.792 128.011 203.792 127.368 203.792 126.725C203.787 110.752 203.785 94.7801 203.77 78.8078C203.769 77.9655 203.768 77.0995 203.587 76.2849C202.691 72.2643 199.554 69.7322 195.384 69.7137C188.252 69.6821 181.119 69.7108 173.986 69.7152C172.837 69.7159 171.687 69.759 170.54 69.7182C166.12 69.5611 162.08 73.2333 162.086 78.255C162.097 87.4512 162.083 96.6474 162.084 105.844C162.085 122.602 162.077 139.361 162.116 156.12C162.119 157.295 161.818 158.171 161.003 159.013C156.413 163.754 151.763 168.426 146.327 172.215C144.204 173.695 141.985 175.038 139.64 176.554C139.513 175.991 139.439 175.663 139.361 175.045C139.324 172.091 139.29 169.427 139.301 166.6C139.316 164.971 139.287 163.506 139.304 161.888C139.318 160.99 139.287 160.246 139.299 159.369C139.312 158.961 139.281 158.686 139.295 158.264C139.309 157.61 139.279 157.102 139.295 156.434C139.308 155.054 139.275 153.835 139.283 152.492C139.295 152.199 139.268 152.031 139.287 151.698C139.301 148.506 139.267 145.477 139.273 142.288C139.286 141.137 139.258 140.147 139.276 138.998C139.293 137.743 139.264 136.647 139.276 135.407C139.289 134.866 139.261 134.469 139.279 133.928C139.293 133.283 139.261 132.783 139.27 132.118C139.285 130.603 139.258 129.252 139.277 127.787C139.292 127.515 139.262 127.357 139.272 127.063C139.285 126.647 139.258 126.367 139.276 125.972C139.29 125.7 139.26 125.542 139.271 125.218C139.285 121.039 139.258 117.027 139.279 112.853C139.295 111.113 139.264 109.534 139.268 107.86C139.279 107.701 139.257 107.637 139.281 107.41C139.296 105.426 139.264 103.604 139.266 101.688C139.277 101.529 139.254 101.465 139.277 101.287C139.291 101.014 139.26 100.855 139.27 100.543C139.283 99.7582 139.254 99.1266 139.273 98.3428C139.288 97.4523 139.257 96.714 139.266 95.8139C139.281 94.5419 139.255 93.4317 139.277 92.1925C139.292 91.7945 139.26 91.5256 139.269 91.1004C139.283 90.1933 139.256 89.4425 139.275 88.5624C139.291 88.1637 139.259 87.8944 139.268 87.5027C139.281 87.2129 139.254 87.0456 139.275 86.7262C139.294 85.8363 139.265 85.0985 139.279 84.2161C139.294 83.6742 139.267 83.2769 139.286 82.731C139.3 81.965 139.268 81.3473 139.275 80.5759C139.287 79.79 139.259 79.1579 139.276 78.3746C139.403 76.2225 139.468 74.2206 139.58 72.2214C139.598 71.9006 139.825 71.5915 140.042 71.1668C140.162 70.4041 140.194 69.7516 140.226 69.099C140.932 67.5214 141.616 65.9335 142.348 64.3684C143.653 61.58 145.101 58.8834 147.386 56.7366C147.718 56.4249 147.955 56.0119 148.385 55.4832C149.183 54.7163 149.831 54.1119 150.48 53.5074C152.686 52.0752 154.893 50.6429 157.348 49.1713C158.314 48.862 159.031 48.592 159.749 48.322C161.289 47.8032 162.81 47.2132 164.377 46.7951C165.183 46.5802 166.07 46.6746 166.921 46.6241C167.582 46.5849 168.243 46.498 168.904 46.5C178.959 46.5309 189.015 46.573 199.356 46.6403C199.808 46.6677 199.976 46.6673 200.144 46.6669C203.272 47.4834 206.453 48.1424 209.527 49.8712C212.785 51.5633 215.363 53.774 217.896 56.0435C218.658 57.0007 219.419 57.9579 220.312 59.0846C220.676 59.5302 220.908 59.8063 221.141 60.0824Z" fill="#008C77"/>
<path d="M158.311 233.232C159.555 232.656 160.697 232.164 162.082 231.566C162.082 232.848 162.081 233.914 162.082 234.981C162.09 250.347 162.083 265.714 162.131 281.08C162.136 282.385 162.315 283.756 162.746 284.979C163.884 288.214 166.827 290.26 170.242 290.27C178.704 290.295 187.167 290.292 195.629 290.242C200.027 290.215 203.549 286.757 203.78 282.373C203.812 281.769 203.804 281.163 203.803 280.558C203.8 254 203.802 227.441 203.766 200.882C203.765 199.698 204.124 198.907 204.972 198.075C209.479 193.653 214.242 189.566 219.811 186.538C221.869 185.419 224.067 184.557 226.334 183.711C226.512 185.169 226.556 186.494 226.558 187.976C226.544 188.997 226.571 189.86 226.558 190.889C226.545 193.365 226.572 195.675 226.558 198.146C226.544 199.409 226.57 200.512 226.556 201.781C226.51 208.503 226.501 215.058 226.504 221.614C226.505 222.693 226.563 223.772 226.552 225.003C226.537 225.779 226.565 226.404 226.551 227.195C226.538 229.428 226.566 231.496 226.553 233.73C226.539 236.205 226.568 238.515 226.554 240.991C226.509 242.776 226.493 244.395 226.504 246.014C226.528 249.488 226.566 252.962 226.557 256.603C226.513 260.191 226.496 263.614 226.508 267.037C226.518 269.675 226.566 272.314 226.597 274.953C226.566 276.507 226.548 278.061 226.5 279.615C226.441 281.469 226.356 283.323 226.269 285.419C226.27 285.72 226.285 285.781 226.299 285.841C226.175 286.478 226.05 287.116 225.905 287.977C225.898 288.261 225.91 288.322 225.923 288.383C225.807 288.786 225.69 289.189 225.542 289.803C225.522 290.075 225.533 290.137 225.543 290.199C224.59 292.532 223.792 294.945 222.649 297.18C220.449 301.484 217.221 304.948 213.147 307.888C212.9 308.099 212.816 308.196 212.733 308.294C212.733 308.294 212.764 308.301 212.647 308.312C212.221 308.559 211.912 308.795 211.603 309.031C210.732 309.47 209.861 309.909 208.794 310.447C208.481 310.643 208.363 310.739 208.246 310.836C207.305 311.191 206.364 311.545 205.193 311.957C204.833 312.095 204.702 312.176 204.571 312.258C203.647 312.471 202.723 312.684 201.595 312.954C201.333 313.038 201.275 313.066 201.217 313.093C201.155 313.081 201.093 313.069 200.818 313.064C200.32 313.179 200.035 313.286 199.75 313.393C190.327 313.426 180.904 313.445 171.482 313.499C167.896 313.52 164.373 313.2 160.954 312.033C157.824 310.965 154.932 309.426 152.017 307.636C150.776 306.627 149.655 305.667 148.382 304.548C147.046 303.001 145.862 301.613 144.679 300.226C144.609 299.947 144.539 299.669 144.354 299.22C143.95 298.619 143.661 298.187 143.372 297.756C143.351 297.696 143.331 297.635 143.229 297.409C143.054 297.14 142.961 297.037 142.868 296.933C141.91 294.048 140.952 291.163 139.954 288.032C139.858 287.642 139.802 287.499 139.745 287.355C139.691 286.818 139.637 286.28 139.568 285.52C139.53 285.24 139.507 285.182 139.484 285.124C139.475 284.698 139.467 284.273 139.444 283.598C139.38 283.093 139.331 282.837 139.283 282.581C139.305 281.954 139.326 281.326 139.302 280.548C139.284 280.007 139.313 279.618 139.34 278.941C139.307 278.145 139.277 277.638 139.248 277.13C139.285 275.692 139.352 274.255 139.353 272.817C139.356 267.83 139.336 262.844 139.322 257.526C139.294 253.792 139.269 250.387 139.287 246.828C139.302 245.812 139.271 244.953 139.241 244.093C139.273 242.771 139.306 241.449 139.462 239.933C140.047 239.614 140.506 239.485 140.967 239.364C145.054 238.295 149.136 237.209 153.091 235.417C153.376 235.325 153.556 235.229 153.858 235.117C154.128 235.031 154.275 234.96 154.422 234.889C155.685 234.365 156.948 233.84 158.311 233.232Z" fill="#008C77"/>
<path d="M364 113H473.4V133.4H430.2V253H407.2V133.4H364V113ZM478.413 150.6H497.613L500.013 166C506.213 155.8 516.213 150.6 530.213 150.6H535.013V170.8H525.413C516.413 170.8 510.013 173.8 506.013 179.6C502.013 185.4 500.013 192.8 500.013 201.6V253H478.413V150.6ZM548.334 150.6H569.934V253H548.334V150.6ZM546.134 123.2C546.134 119.6 547.334 116.4 549.934 114C552.334 111.6 555.534 110.2 559.334 110.2C562.934 110.2 566.134 111.6 568.734 114C571.134 116.4 572.534 119.6 572.534 123.2C572.534 127 571.134 130.2 568.734 132.6C566.134 135 562.934 136.2 559.334 136.2C555.534 136.2 552.334 135 549.934 132.6C547.334 130.2 546.134 127 546.134 123.2ZM590.108 181.8C591.108 171.8 595.708 164 603.708 158.2C611.708 152.4 622.308 149.4 635.308 149.4C648.908 149.4 659.508 152.6 666.908 159C674.308 165.4 678.108 174.6 678.108 186.6V227.6C678.108 230.2 678.508 232 679.708 232.8C680.708 233.8 682.308 234.2 684.708 234.2H689.108V253H677.708C665.108 253 658.908 247.6 658.908 236.6C651.108 248.4 639.908 254.2 625.108 254.2C613.508 254.2 604.308 251.6 597.508 246.2C590.508 241 587.108 233.6 587.108 224.2C587.108 213.8 590.708 205.6 598.308 200C605.708 194.4 616.508 191.4 630.908 191.4H656.708V185.2C656.708 179.6 654.708 175 650.708 171.8C646.708 168.6 641.308 166.8 634.308 166.8C627.908 166.8 622.708 168.2 618.708 171C614.508 173.8 612.108 177.4 611.308 181.8H590.108ZM609.108 222.8C609.108 227.2 610.708 230.8 614.108 233.4C617.508 236.2 622.108 237.4 628.108 237.4C636.908 237.4 643.908 235 648.908 230.2C653.908 225.4 656.508 219 656.708 211V207.4H629.908C615.908 207.4 609.108 212.6 609.108 222.8ZM700.873 113H722.473V253H700.873V113ZM734.647 253L787.047 113H814.447L866.647 253H842.047L828.847 218.4H771.447L758.447 253H734.647ZM777.847 198.8H822.447L800.047 137.8L777.847 198.8ZM906.994 200.6L870.794 150.6H895.994L920.394 185.2L945.394 150.6H969.194L932.794 200.6L971.394 253H946.194L919.394 215.8L892.394 253H868.594L906.994 200.6ZM981.928 150.6H1003.53V253H981.928V150.6ZM979.728 123.2C979.728 119.6 980.928 116.4 983.528 114C985.928 111.6 989.128 110.2 992.928 110.2C996.528 110.2 999.728 111.6 1002.33 114C1004.73 116.4 1006.13 119.6 1006.13 123.2C1006.13 127 1004.73 130.2 1002.33 132.6C999.728 135 996.528 136.2 992.928 136.2C989.128 136.2 985.928 135 983.528 132.6C980.928 130.2 979.728 127 979.728 123.2ZM1041.5 219.2C1041.9 224.8 1044.3 229.2 1048.9 232.4C1053.3 235.8 1059.5 237.4 1067.1 237.4C1073.7 237.4 1079.1 236.2 1083.1 233.8C1087.1 231.4 1089.3 228.2 1089.3 224C1089.3 221.6 1088.7 219.4 1087.9 217.8C1086.9 216.2 1085.1 214.8 1082.7 213.8C1080.3 213 1077.9 212.2 1075.9 211.8C1073.7 211.4 1070.3 211 1065.7 210.4C1064.9 210.4 1064.5 210.2 1064.1 210.2C1057.3 209.4 1051.9 208.6 1047.5 207.4C1043.1 206.4 1038.7 204.8 1034.7 202.8C1030.5 200.8 1027.3 197.8 1025.3 194.2C1023.3 190.6 1022.3 186.4 1022.3 181.2C1022.3 171.6 1026.1 164 1033.9 158C1041.7 152.2 1051.9 149.4 1064.3 149.4C1077.1 149.4 1087.5 152.4 1095.5 158C1103.5 163.8 1107.9 171.8 1108.7 182H1087.5C1086.7 177.2 1084.3 173.4 1080.3 170.4C1076.1 167.6 1070.9 166 1064.7 166C1058.3 166 1053.1 167.2 1049.3 169.6C1045.3 172 1043.5 175.4 1043.5 179.4C1043.5 181 1043.7 182.4 1044.1 183.6C1044.5 184.8 1045.5 185.8 1046.7 186.6C1047.9 187.4 1048.9 188.2 1050.1 188.6C1051.3 189.2 1052.9 189.6 1055.3 190C1057.5 190.4 1059.5 190.8 1061.1 191C1062.7 191.2 1064.9 191.4 1068.1 191.8C1073.3 192.6 1077.9 193.2 1081.5 194C1085.1 194.8 1088.9 195.8 1092.9 197.2C1096.9 198.8 1099.9 200.6 1102.3 202.6C1104.7 204.6 1106.5 207.4 1108.1 210.6C1109.7 214 1110.5 217.8 1110.5 222.2C1110.5 231.8 1106.3 239.6 1098.3 245.4C1090.1 251.4 1079.7 254.2 1067.1 254.2C1053.1 254.2 1041.9 251.2 1033.5 245C1024.9 238.8 1020.5 230.2 1020.3 219.2H1041.5Z" fill="black"/>
</svg>
